PathFileType	4	(X/Y/Z)	E:\Qualisys_Data\Carbon_Farble_Plate\Data\Amateur_Runner\S2\T2\S2T2V21_c3d.trc
DataRate	CameraRate	NumFrames	NumMarkers	Units	OrigDataRate	OrigDataStartFrame	OrigNumFrames
200.000000	200.000000	4	39	mm	200.000000	39	313
Frame#	Time	LSHO			RSHO			LICST			RICST			LASIS			LHEEL			RASIS			LTROC			RTROC			SACR			LTH1			LSK4			LTH2			LTH3			RHM5			LSK2			LTH4			RTH1			LTOE			RTH2			RTH3			RTH4			LLEP			RLEP			LSK1			LSK3			RSK1			LHM5			RSK2			LFT1			RSK3			RSK4			LLME			RLME			RTOE			RHEEL			RFT1			RFT2			LFT2			
		X1	Y1	Z1	X2	Y2	Z2	X3	Y3	Z3	X4	Y4	Z4	X5	Y5	Z5	X6	Y6	Z6	X7	Y7	Z7	X8	Y8	Z8	X9	Y9	Z9	X10	Y10	Z10	X11	Y11	Z11	X12	Y12	Z12	X13	Y13	Z13	X14	Y14	Z14	X15	Y15	Z15	X16	Y16	Z16	X17	Y17	Z17	X18	Y18	Z18	X19	Y19	Z19	X20	Y20	Z20	X21	Y21	Z21	X22	Y22	Z22	X23	Y23	Z23	X24	Y24	Z24	X25	Y25	Z25	X26	Y26	Z26	X27	Y27	Z27	X28	Y28	Z28	X29	Y29	Z29	X30	Y30	Z30	X31	Y31	Z31	X32	Y32	Z32	X33	Y33	Z33	X34	Y34	Z34	X35	Y35	Z35	X36	Y36	Z36	X37	Y37	Z37	X38	Y38	Z38	X39	Y39	Z39	

40	0.195	-2346.03369140625	1432.252319335938	-410.0530395507812	-2349.870361328125	1397.669677734375	-92.46839904785156	-2435.16796875	965.1793212890624	-420.2503662109375	-2434.942138671875	951.068359375	-114.7273406982422	-2376.77490234375	915.3948364257812	-404.5655822753906	-2693.116943359375	540.4002685546875	-302.8818054199219	-2370.0888671875	909.2069091796876	-140.0690002441406	-2504.0205078125	836.1868286132812	-416.9122924804688	-2516.399658203125	852.797607421875	-118.7971115112305	-2518.550048828125	1005.533874511719	-268.9741821289062	-2304.76025390625	639.1920776367188	-442.0440979003906	-2512.47021484375	518.3763427734375	-404.0682067871094	-2384.191650390625	611.7411499023438	-445.6957397460938	-2271.119140625	542.4357299804688	-428.5706787109375	-2509.96728515625	77.1440658569336	-159.3879699707031	-2416.042724609375	515.5056762695312	-428.96435546875	-2354.647705078125	518.1355590820312	-423.8809509277344	-2364.478271484375	595.7628784179688	-122.0986328125	-2708.928466796875	297.1026611328125	-352.4375915527344	-2441.916015625	590.3795776367188	-121.8360748291016	-2357.189208984375	498.3652038574219	-150.7832183837891	-2438.865478515625	496.3471069335938	-146.7932739257812	-2307.489501953125	479.8737487792969	-428.9444580078125	-2404.996826171875	456.8091735839844	-146.2147369384766	-2417.160400390625	436.0609436035156	-417.423095703125	-2516.82568359375	439.8445739746094	-401.3559875488281	-2416.528076171875	333.6484375	-155.7816162109375	-2730.76416015625	359.5310974121094	-401.0360717773438	-2483.9453125	373.5396118164062	-137.5430297851562	-2722.36474609375	529.6731567382812	-281.0392150878906	-2470.9462890625	247.7622985839844	-170.0641174316406	-2536.550537109375	289.093505859375	-151.7058868408203	-2685.94140625	486.217041015625	-369.5393981933594	-2606.9248046875	123.2497100830078	-190.1985015869141	-2438.08544921875	72.07413482666016	-221.2289123535156	-2677.76220703125	120.9576416015625	-248.3765106201172	-2668.101318359375	84.8879165649414	-272.0586853027344	-2684.61962890625	94.03856658935548	-219.4270477294922	-2727.438720703125	542.553466796875	-334.0257263183594
41	0.2	-2329.55126953125	1436.087524414062	-411.0608215332031	-2326.9921875	1401.259033203125	-93.09459686279295	-2414.844970703125	968.3971557617188	-420.2626342773438	-2412.484130859375	953.3300170898438	-114.8445205688477	-2356.184814453125	919.2406616210938	-404.0944213867188	-2668.08154296875	533.8490600585938	-304.8583374023438	-2349.415283203125	910.944580078125	-140.0803833007812	-2483.031005859375	839.9814453125	-417.8255615234375	-2496.224609375	854.7305297851562	-118.4280548095703	-2497.522216796875	1008.484069824219	-267.6068725585938	-2278.355712890625	647.4553833007812	-440.9664611816406	-2483.894775390625	517.7021484375	-404.6143798828125	-2354.97509765625	613.9635009765625	-444.3447265625	-2242.666259765625	551.00439453125	-427.2684326171875	-2510.1396484375	77.93202209472656	-159.5319976806641	-2386.995361328125	517.708251953125	-427.4966430664062	-2324.710693359375	523.5220947265625	-422.9722595214844	-2353.786865234375	595.0640258789062	-121.7898483276367	-2671.156005859375	287.7983093261719	-352.7483825683594	-2434.63330078125	594.3070068359375	-121.2765731811523	-2350.8583984375	497.4995422363281	-151.2731475830078	-2431.535888671875	497.794189453125	-146.777587890625	-2276.307373046875	486.8175354003906	-427.3767700195312	-2397.95263671875	457.9073791503906	-146.3888702392578	-2385.142822265625	439.0315246582031	-416.4302062988281	-2483.763916015625	438.9517211914062	-400.863037109375	-2412.41357421875	334.7081604003906	-156.0925445556641	-2697.193115234375	348.1493835449219	-403.0353393554688	-2478.843994140625	375.6778564453125	-137.2677459716797	-2695.3876953125	520.703857421875	-281.5213012695312	-2468.28515625	249.819580078125	-170.6037902832031	-2532.611328125	291.6648559570312	-151.7318878173828	-2655.76171875	478.0255126953125	-370.2191162109375	-2604.889892578125	125.9256439208984	-190.9599761962891	-2438.438720703125	72.29071807861328	-221.9355926513672	-2676.433837890625	122.5733108520508	-248.5921020507812	-2667.34130859375	86.2824935913086	-272.5875244140625	-2683.78759765625	96.86734771728516	-220.1093444824219	-2700.898193359375	532.9183349609375	-334.9234619140625
42	0.205	-2311.636962890625	1439.30615234375	-411.4141540527344	-2304.74462890625	1405.45166015625	-94.49837493896484	-2394.174072265625	971.9959716796876	-420.1134643554688	-2389.903076171875	956.65234375	-114.6840972900391	-2335.7021484375	922.6949462890624	-404.0837097167969	-2641.82373046875	524.894775390625	-306.2584838867188	-2327.634033203125	912.8578491210938	-140.2699890136719	-2462.00732421875	844.3973388671875	-418.5096130371094	-2475.5068359375	857.5061645507812	-118.9238967895508	-2476.2177734375	1011.594848632812	-266.0701904296875	-2252.638427734375	655.4783935546875	-440.6283569335938	-2454.5947265625	516.99951171875	-404.3087768554688	-2330.39306640625	622.628662109375	-444.6810913085938	-2214.377685546875	560.5514526367188	-426.2742919921875	-2510.50537109375	78.82576751708984	-160.3183288574219	-2357.27734375	520.633056640625	-426.7150268554688	-2294.897705078125	530.3173217773438	-421.5979309082031	-2342.564453125	595.3862915039062	-121.558464050293	-2629.684814453125	279.999267578125	-352.3587341308594	-2419.989501953125	595.1530151367188	-120.9722900390625	-2343.55126953125	497.7205810546875	-151.7262725830078	-2423.470458984375	501.1507263183594	-146.5275573730469	-2245.901611328125	495.2673645019531	-426.4686889648438	-2390.47607421875	460.0168151855469	-146.5091552734375	-2352.9365234375	442.3875122070312	-415.7919616699219	-2452.1259765625	438.4403686523438	-400.6797180175781	-2408.216552734375	335.8035278320312	-156.2527465820312	-2659.304931640625	338.0874328613281	-403.7335510253906	-2474.70703125	377.7899780273438	-137.4345092773438	-2668.689453125	512.7271728515625	-285.9294738769531	-2464.543701171875	251.7444458007812	-171.2752990722656	-2529.76171875	295.156982421875	-151.9104766845703	-2625.563720703125	469.6509399414062	-370.8804626464844	-2603.197509765625	129.0522918701172	-191.7559356689453	-2438.45947265625	71.69871520996094	-221.6920166015625	-2677.24169921875	126.0052947998047	-251.093994140625	-2666.93115234375	88.65337371826172	-272.6882629394531	-2682.471923828125	99.05208587646484	-220.2644348144531	-2673.60400390625	521.9620971679688	-335.9219665527344
43	0.21	-2294.727294921875	1443.642211914062	-412.2215576171875	-2282.73291015625	1409.818237304688	-95.30591583251952	-2373.25439453125	975.921875	-419.5877075195312	-2366.605224609375	959.216552734375	-114.114372253418	-2314.992919921875	927.11328125	-403.601806640625	-2614.60498046875	515.3008422851562	-307.0330810546875	-2305.51708984375	915.0755615234376	-140.5307922363281	-2440.509033203125	848.8338012695312	-419.215576171875	-2455.155517578125	860.9116821289062	-119.3842926025391	-2454.58544921875	1014.872253417969	-265.0085144042969	-2227.5185546875	664.0816040039062	-439.3954162597656	-2426.473388671875	516.3855590820312	-404.6109313964844	-2304.30419921875	628.923828125	-444.5629272460938	-2186.3740234375	570.4263305664062	-424.713134765625	-2508.7607421875	79.73231506347656	-160.8061065673828	-2329.442138671875	523.8045654296875	-426.19384765625	-2266.276123046875	538.064453125	-421.3382263183594	-2331.107421875	596.230712890625	-121.614860534668	-2580.281982421875	273.169677734375	-349.6000671386719	-2409.09521484375	599.0178833007812	-121.4933013916016	-2334.5869140625	498.9014587402344	-152.5708160400391	-2414.36962890625	504.4805603027344	-146.5177917480469	-2216.46875	503.525634765625	-425.3683776855469	-2383.10498046875	462.7708435058594	-146.9036102294922	-2321.6376953125	446.0718383789062	-414.838623046875	-2420.239501953125	437.9241638183594	-400.6218872070312	-2403.45068359375	339.0457763671875	-155.9995574951172	-2620.58837890625	328.1213684082031	-403.9997253417969	-2469.72412109375	380.8719482421875	-137.7616271972656	-2641.703857421875	500.9223937988281	-286.2219848632812	-2461.53759765625	255.4843597412109	-170.9506378173828	-2524.678955078125	299.123046875	-151.9079742431641	-2596.3271484375	462.0036926269531	-372.2432250976562	-2600.943603515625	132.4393920898438	-191.9474487304688	-2438.71142578125	71.49140930175781	-222.6939849853516	-2676.044921875	129.8782958984375	-251.2833862304688	-2666.03076171875	92.31349182128906	-272.8018188476562	-2681.11279296875	103.6416778564453	-220.3440093994141	-2647.9111328125	511.4302673339844	-337.1403503417969
